<?xml version="1.0" encoding="UTF-8"?>
<svg width="652px" height="377px" viewBox="0 0 652 377" version="1.1" xmlns="http://www.w3.org/2000/svg" xmlns:xlink="http://www.w3.org/1999/xlink">
    <title>Artboard</title>
    <g id="Artboard" stroke="none" stroke-width="1" fill="none" fill-rule="evenodd">
        <g id="Brand-Symbol" fill="#2B2A29">
            <path d="M321.559669,0.699541033 C391.619328,0.699541033 455.947731,40.2383881 490.071759,98.4012023 L490.071759,98.4012023 L490.071759,278.707575 C455.947731,337.084647 390.614711,376.755345 319.583374,376.788308 L319.583374,376.788308 L317.887055,376.788308 C214.296257,376.788308 127.372214,292.420088 127.372214,188.752165 C127.372214,85.0677604 219.171118,0.699541033 321.559669,0.699541033 Z M547.153746,10.5059662 C611.959754,44.2763279 651.535062,110.630391 651.518598,187.219396 L651.518598,187.219396 L651.518598,188.356612 C651.518598,263.56118 612.849087,329.486727 549.72293,364.114121 L549.72293,364.114121 L547.153746,364.114121 L547.153746,267.566157 C561.77833,244.591104 570.111707,217.44626 570.111707,188.290686 L570.111707,188.290686 L570.111707,187.483098 C570.111707,158.14623 561.794799,130.968423 547.153746,108.042814 L547.153746,108.042814 Z M80.5175531,39.0187655 L80.5175531,341.584065 C29.331512,307.41815 0.658765008,251.711063 0.658765008,188.752165 C0.658765008,127.622701 29.3150429,73.3824571 80.5175531,39.0187655 L80.5175531,39.0187655 Z M319.418683,75.1130027 C268.216173,75.1130027 208.762631,120.964221 208.762631,188.768646 C208.762631,256.07863 260.623906,298.600608 316.717747,299.21042 C372.860994,298.584127 427.35733,256.062149 427.35733,188.768646 C427.35733,120.964221 370.621193,75.1130027 319.418683,75.1130027 Z" id="Combined-Shape"></path>
        </g>
    </g>
</svg>